<svg width="18" height="18" viewBox="0 0 18 18" fill="none" xmlns="http://www.w3.org/2000/svg">
<path d="M16.1255 9.00068C16.1255 9.20768 15.9575 9.37568 15.7505 9.37568H3.15569L7.76524 13.9852C7.91149 14.1314 7.91149 14.3692 7.76524 14.5154C7.69174 14.5889 7.59573 14.6249 7.49973 14.6249C7.40373 14.6249 7.30773 14.5882 7.23423 14.5154L1.98423 9.26543C1.83798 9.11918 1.83798 8.88143 1.98423 8.73518L7.23423 3.48518C7.38048 3.33893 7.61821 3.33893 7.76446 3.48518C7.91071 3.63143 7.91071 3.86918 7.76446 4.01543L3.15496 8.62492H15.7505C15.9575 8.62567 16.1255 8.79293 16.1255 9.00068Z" fill="#41416E"/>
</svg>
