<svg width="26" height="26" viewBox="0 0 26 26" fill="none" xmlns="http://www.w3.org/2000/svg">
<path d="M13 6.89796C11.7931 6.89796 10.6134 7.25584 9.60989 7.92634C8.60641 8.59684 7.8243 9.54985 7.36245 10.6648C6.9006 11.7799 6.77976 13.0068 7.01521 14.1904C7.25066 15.3741 7.83182 16.4614 8.68521 17.3148C9.53859 18.1682 10.6259 18.7493 11.8096 18.9848C12.9932 19.2202 14.2201 19.0994 15.3351 18.6376C16.4502 18.1757 17.4032 17.3936 18.0737 16.3901C18.7442 15.3866 19.102 14.2069 19.102 13C19.102 11.3816 18.4591 9.82956 17.3148 8.68521C16.1704 7.54085 14.6184 6.89796 13 6.89796ZM13 17.5102C12.108 17.5102 11.236 17.2457 10.4943 16.7501C9.75257 16.2545 9.17448 15.5501 8.83311 14.726C8.49175 13.9018 8.40243 12.995 8.57646 12.1201C8.75048 11.2452 9.18004 10.4416 9.8108 9.8108C10.4416 9.18004 11.2452 8.75048 12.1201 8.57646C12.995 8.40243 13.9018 8.49175 14.726 8.83311C15.5501 9.17448 16.2545 9.75257 16.7501 10.4943C17.2457 11.236 17.5102 12.108 17.5102 13C17.5067 14.1951 17.0304 15.3403 16.1853 16.1853C15.3403 17.0304 14.1951 17.5067 13 17.5102ZM18.8367 0H7.16327C5.26345 0 3.44144 0.754699 2.09807 2.09807C0.754699 3.44144 0 5.26345 0 7.16327V18.8367C0 20.7365 0.754699 22.5586 2.09807 23.9019C3.44144 25.2453 5.26345 26 7.16327 26H18.8367C20.7365 26 22.5586 25.2453 23.9019 23.9019C25.2453 22.5586 26 20.7365 26 18.8367V7.16327C26 5.26345 25.2453 3.44144 23.9019 2.09807C22.5586 0.754699 20.7365 0 18.8367 0ZM24.4082 18.8367C24.4082 20.3144 23.8212 21.7315 22.7763 22.7763C21.7315 23.8212 20.3144 24.4082 18.8367 24.4082H7.16327C5.68563 24.4082 4.26852 23.8212 3.22367 22.7763C2.17882 21.7315 1.59184 20.3144 1.59184 18.8367V7.16327C1.59184 5.68563 2.17882 4.26852 3.22367 3.22367C4.26852 2.17882 5.68563 1.59184 7.16327 1.59184H18.8367C20.3144 1.59184 21.7315 2.17882 22.7763 3.22367C23.8212 4.26852 24.4082 5.68563 24.4082 7.16327V18.8367ZM21.2245 6.10204C21.2245 6.3644 21.1467 6.62087 21.0009 6.83902C20.8552 7.05717 20.648 7.22719 20.4056 7.32759C20.1632 7.428 19.8965 7.45427 19.6392 7.40308C19.3818 7.3519 19.1455 7.22556 18.96 7.04004C18.7744 6.85452 18.6481 6.61816 18.5969 6.36083C18.5457 6.10351 18.572 5.83679 18.6724 5.5944C18.7728 5.35201 18.9428 5.14483 19.161 4.99907C19.3791 4.85331 19.6356 4.77551 19.898 4.77551C20.2498 4.77551 20.5872 4.91527 20.836 5.16404C21.0847 5.41281 21.2245 5.75022 21.2245 6.10204Z" fill="#0B0B0B"/>
</svg>
