<svg width="29" height="29" viewBox="0 0 29 29" fill="none" xmlns="http://www.w3.org/2000/svg">
<path d="M14.5 26.2812C19.0312 19.9375 22.6562 14.5 22.6562 10.875C22.6562 8.71183 21.7969 6.63725 20.2673 5.10766C18.7377 3.57807 16.6632 2.71875 14.5 2.71875C12.3368 2.71875 10.2623 3.57807 8.73266 5.10766C7.20307 6.63725 6.34375 8.71183 6.34375 10.875C6.34375 14.5 9.96875 19.9375 14.5 26.2812Z" stroke="black"/>
<path d="M18.125 10.875C18.125 11.8364 17.7431 12.7584 17.0633 13.4383C16.3834 14.1181 15.4614 14.5 14.5 14.5C13.5386 14.5 12.6166 14.1181 11.9367 13.4383C11.2569 12.7584 10.875 11.8364 10.875 10.875C10.875 9.91359 11.2569 8.99156 11.9367 8.31174C12.6166 7.63192 13.5386 7.25 14.5 7.25C15.4614 7.25 16.3834 7.63192 17.0633 8.31174C17.7431 8.99156 18.125 9.91359 18.125 10.875Z" stroke="black"/>
</svg>
