<svg width="25" height="26" viewBox="0 0 25 26" fill="none" xmlns="http://www.w3.org/2000/svg">
<path fill-rule="evenodd" clip-rule="evenodd" d="M18.6662 10.4566C18.6662 15.1495 14.913 18.9132 10.3331 18.9132C5.75319 18.9132 2 15.1495 2 10.4566C2 5.76367 5.75319 2 10.3331 2C14.913 2 18.6662 5.76367 18.6662 10.4566ZM17.043 18.4089C15.2376 19.9703 12.8942 20.9132 10.3331 20.9132C4.62628 20.9132 0 16.2316 0 10.4566C0 4.68157 4.62628 0 10.3331 0C16.0399 0 20.6662 4.68157 20.6662 10.4566C20.6662 12.9153 19.8276 15.1759 18.424 16.9613L23.2709 21.8661L23.9738 22.5774L22.568 24L21.8651 23.2887L17.043 18.4089Z" fill="#0B0B0B"/>
</svg>
