<svg width="124" height="23" viewBox="0 0 124 23" fill="none" xmlns="http://www.w3.org/2000/svg">
<path d="M9.8125 22.5156H8.17188L0 0.109375H4.84375L9.8125 13.7344V22.5156ZM21.5625 13.9219L26.5781 0.15625H31.4219L27.3438 11.3438L23.2656 22.5312H21.5625V13.9219ZM18.1406 6.96875L20.6094 13.7344V22.5156H18.9688L15.7188 13.6094L12.4688 22.5312H10.7656V13.9219L13.2969 6.96875H18.1406Z" fill="black"/>
<path d="M41.0938 0.109375L49.0156 22.5156H43.2344L41.7344 17.75H35.5312L36.7344 13.6094H40.5469V13.5312L38.2344 5.28125H38.1562L33.3125 22.5156H28.7812V19.2656L35.2969 0.109375H41.0938Z" fill="black"/>
<path d="M55.125 22.5156H50.0312V1.45312L55.125 9.95312V22.5156ZM63.4062 22.5L50.0938 0.125H54.9375L68.2656 22.5156L63.4062 22.5ZM63.2031 0.109375H68.2969V21.1719L63.2031 12.6719V0.109375Z" fill="black"/>
<path d="M80.9062 22.4688H75.8125V5.10938H80.9062V22.4688ZM86.5781 0.15625V4.28125H69.8906V0.15625H86.5781Z" fill="black"/>
<path d="M93.3438 22.5156H88.25V0.0625H93.3438V22.5156ZM104.719 0.109375V4.23438H94.2188V0.109375H104.719ZM103.891 8.59375V12.7188H94.25V8.59375H103.891ZM104.766 18.3594V22.4844H94.2656V18.3594H104.766Z" fill="black"/>
<path d="M111.375 22.5156H106.281V0.0625H111.375V22.5156ZM118.656 6.85938C118.302 5.10938 117.344 4.21875 115.781 4.1875L112.188 4.14062V0H115.781C118.792 0 120.974 0.848958 122.328 2.54688C123.286 4.00521 123.766 5.52604 123.766 7.10938V15.3906C123.766 16.974 123.286 18.4948 122.328 19.9531C120.974 21.651 118.792 22.5 115.781 22.5H112.188V18.3594L115.781 18.3125C117.344 18.2812 118.302 17.3906 118.656 15.6406V6.85938Z" fill="black"/>
</svg>
