<svg width="33" height="33" viewBox="0 0 33 33" fill="none" xmlns="http://www.w3.org/2000/svg">
<path d="M22.0153 4.81181C22.1952 4.99598 22.2959 5.24323 22.2959 5.50068C22.2959 5.75814 22.1952 6.00538 22.0153 6.18956L11.9647 16.5L22.0153 26.8084C22.1952 26.9925 22.2959 27.2398 22.2959 27.4972C22.2959 27.7547 22.1952 28.0019 22.0153 28.1861C21.9278 28.2759 21.8233 28.3473 21.7078 28.396C21.5923 28.4448 21.4683 28.4699 21.3429 28.4699C21.2176 28.4699 21.0935 28.4448 20.978 28.396C20.8625 28.3473 20.758 28.2759 20.6705 28.1861L9.98267 17.2198C9.79495 17.0272 9.68989 16.7689 9.68989 16.5C9.68989 16.2311 9.79495 15.9728 9.98267 15.7802L20.6705 4.81387C20.758 4.72406 20.8625 4.65268 20.978 4.60394C21.0935 4.5552 21.2176 4.53009 21.3429 4.53009C21.4683 4.53009 21.5923 4.5552 21.7078 4.60394C21.8233 4.65268 21.9278 4.72406 22.0153 4.81387V4.81181Z" fill="black"/>
</svg>
