<svg width="25" height="25" viewBox="0 0 25 25" fill="none" xmlns="http://www.w3.org/2000/svg">
<mask id="path-1-inside-1_150_2507" fill="white">
<path d="M21.3354 24.4575H3.64258V3.12207H21.3354V24.4575ZM4.68333 23.4168H20.2946V4.16282H4.68333V23.4168Z"/>
</mask>
<path d="M21.3354 24.4575H3.64258V3.12207H21.3354V24.4575ZM4.68333 23.4168H20.2946V4.16282H4.68333V23.4168Z" fill="#0B0B0B"/>
<path d="M21.3354 24.4575V26.4575H23.3354V24.4575H21.3354ZM3.64258 24.4575H1.64258V26.4575H3.64258V24.4575ZM3.64258 3.12207V1.12207H1.64258V3.12207H3.64258ZM21.3354 3.12207H23.3354V1.12207H21.3354V3.12207ZM4.68333 23.4168H2.68333V25.4168H4.68333V23.4168ZM20.2946 23.4168V25.4168H22.2946V23.4168H20.2946ZM20.2946 4.16282H22.2946V2.16282H20.2946V4.16282ZM4.68333 4.16282V2.16282H2.68333V4.16282H4.68333ZM21.3354 22.4575H3.64258V26.4575H21.3354V22.4575ZM5.64258 24.4575V3.12207H1.64258V24.4575H5.64258ZM3.64258 5.12207H21.3354V1.12207H3.64258V5.12207ZM19.3354 3.12207V24.4575H23.3354V3.12207H19.3354ZM4.68333 25.4168H20.2946V21.4168H4.68333V25.4168ZM22.2946 23.4168V4.16282H18.2946V23.4168H22.2946ZM20.2946 2.16282H4.68333V6.16282H20.2946V2.16282ZM2.68333 4.16282V23.4168H6.68333V4.16282H2.68333Z" fill="#0B0B0B" mask="url(#path-1-inside-1_150_2507)"/>
<mask id="path-3-inside-2_150_2507" fill="white">
<path d="M18.2129 4.16301H6.76465V0H18.2129V4.16301ZM7.8054 3.12226H17.1722V1.04075H7.8054V3.12226Z"/>
</mask>
<path d="M18.2129 4.16301H6.76465V0H18.2129V4.16301ZM7.8054 3.12226H17.1722V1.04075H7.8054V3.12226Z" fill="#0B0B0B"/>
<path d="M18.2129 4.16301V6.16301H20.2129V4.16301H18.2129ZM6.76465 4.16301H4.76465V6.16301H6.76465V4.16301ZM6.76465 0V-2H4.76465V0H6.76465ZM18.2129 0H20.2129V-2H18.2129V0ZM7.8054 3.12226H5.8054V5.12226H7.8054V3.12226ZM17.1722 3.12226V5.12226H19.1722V3.12226H17.1722ZM17.1722 1.04075H19.1722V-0.959247H17.1722V1.04075ZM7.8054 1.04075V-0.959247H5.8054V1.04075H7.8054ZM18.2129 2.16301H6.76465V6.16301H18.2129V2.16301ZM8.76465 4.16301V0H4.76465V4.16301H8.76465ZM6.76465 2H18.2129V-2H6.76465V2ZM16.2129 0V4.16301H20.2129V0H16.2129ZM7.8054 5.12226H17.1722V1.12226H7.8054V5.12226ZM19.1722 3.12226V1.04075H15.1722V3.12226H19.1722ZM17.1722 -0.959247H7.8054V3.04075H17.1722V-0.959247ZM5.8054 1.04075V3.12226H9.8054V1.04075H5.8054Z" fill="#0B0B0B" mask="url(#path-3-inside-2_150_2507)"/>
<mask id="path-5-inside-3_150_2507" fill="white">
<path d="M8.32604 20.8138C8.03827 20.8138 7.80566 20.5812 7.80566 20.2935V7.28405C7.80566 6.99628 8.03827 6.76367 8.32604 6.76367C8.61381 6.76367 8.84642 6.99628 8.84642 7.28405V20.2935C8.84642 20.5812 8.61381 20.8138 8.32604 20.8138Z"/>
</mask>
<path d="M8.32604 20.8138C8.03827 20.8138 7.80566 20.5812 7.80566 20.2935V7.28405C7.80566 6.99628 8.03827 6.76367 8.32604 6.76367C8.61381 6.76367 8.84642 6.99628 8.84642 7.28405V20.2935C8.84642 20.5812 8.61381 20.8138 8.32604 20.8138Z" fill="#0B0B0B"/>
<path d="M8.32604 18.8138C9.14284 18.8138 9.80566 19.4767 9.80566 20.2935H5.80566C5.80566 21.6858 6.9337 22.8138 8.32604 22.8138V18.8138ZM9.80566 20.2935V7.28405H5.80566V20.2935H9.80566ZM9.80566 7.28405C9.80566 8.10085 9.14284 8.76367 8.32604 8.76367V4.76367C6.9337 4.76367 5.80566 5.89171 5.80566 7.28405H9.80566ZM8.32604 8.76367C7.50924 8.76367 6.84642 8.10085 6.84642 7.28405H10.8464C10.8464 5.89171 9.71838 4.76367 8.32604 4.76367V8.76367ZM6.84642 7.28405V20.2935H10.8464V7.28405H6.84642ZM6.84642 20.2935C6.84642 19.4767 7.50924 18.8138 8.32604 18.8138V22.8138C9.71838 22.8138 10.8464 21.6858 10.8464 20.2935H6.84642Z" fill="#0B0B0B" mask="url(#path-5-inside-3_150_2507)"/>
<mask id="path-7-inside-4_150_2507" fill="white">
<path d="M12.4891 20.8138C12.2014 20.8138 11.9688 20.5812 11.9688 20.2935V7.28405C11.9688 6.99628 12.2014 6.76367 12.4891 6.76367C12.7769 6.76367 13.0095 6.99628 13.0095 7.28405V20.2935C13.0095 20.5812 12.7769 20.8138 12.4891 20.8138Z"/>
</mask>
<path d="M12.4891 20.8138C12.2014 20.8138 11.9688 20.5812 11.9688 20.2935V7.28405C11.9688 6.99628 12.2014 6.76367 12.4891 6.76367C12.7769 6.76367 13.0095 6.99628 13.0095 7.28405V20.2935C13.0095 20.5812 12.7769 20.8138 12.4891 20.8138Z" fill="#0B0B0B"/>
<path d="M12.4891 18.8138C13.3059 18.8138 13.9688 19.4767 13.9688 20.2935H9.96875C9.96875 21.6858 11.0968 22.8138 12.4891 22.8138V18.8138ZM13.9688 20.2935V7.28405H9.96875V20.2935H13.9688ZM13.9688 7.28405C13.9688 8.10085 13.3059 8.76367 12.4891 8.76367V4.76367C11.0968 4.76367 9.96875 5.89171 9.96875 7.28405H13.9688ZM12.4891 8.76367C11.6723 8.76367 11.0095 8.10085 11.0095 7.28405H15.0095C15.0095 5.89171 13.8815 4.76367 12.4891 4.76367V8.76367ZM11.0095 7.28405V20.2935H15.0095V7.28405H11.0095ZM11.0095 20.2935C11.0095 19.4767 11.6723 18.8138 12.4891 18.8138V22.8138C13.8815 22.8138 15.0095 21.6858 15.0095 20.2935H11.0095Z" fill="#0B0B0B" mask="url(#path-7-inside-4_150_2507)"/>
<mask id="path-9-inside-5_150_2507" fill="white">
<path d="M16.6522 20.8138C16.3644 20.8138 16.1318 20.5812 16.1318 20.2935V7.28405C16.1318 6.99628 16.3644 6.76367 16.6522 6.76367C16.94 6.76367 17.1726 6.99628 17.1726 7.28405V20.2935C17.1726 20.5812 16.94 20.8138 16.6522 20.8138Z"/>
</mask>
<path d="M16.6522 20.8138C16.3644 20.8138 16.1318 20.5812 16.1318 20.2935V7.28405C16.1318 6.99628 16.3644 6.76367 16.6522 6.76367C16.94 6.76367 17.1726 6.99628 17.1726 7.28405V20.2935C17.1726 20.5812 16.94 20.8138 16.6522 20.8138Z" fill="#0B0B0B"/>
<path d="M16.6522 18.8138C17.469 18.8138 18.1318 19.4767 18.1318 20.2935H14.1318C14.1318 21.6858 15.2599 22.8138 16.6522 22.8138V18.8138ZM18.1318 20.2935V7.28405H14.1318V20.2935H18.1318ZM18.1318 7.28405C18.1318 8.10085 17.469 8.76367 16.6522 8.76367V4.76367C15.2599 4.76367 14.1318 5.89171 14.1318 7.28405H18.1318ZM16.6522 8.76367C15.8354 8.76367 15.1726 8.10085 15.1726 7.28405H19.1726C19.1726 5.89171 18.0446 4.76367 16.6522 4.76367V8.76367ZM15.1726 7.28405V20.2935H19.1726V7.28405H15.1726ZM15.1726 20.2935C15.1726 19.4767 15.8354 18.8138 16.6522 18.8138V22.8138C18.0446 22.8138 19.1726 21.6858 19.1726 20.2935H15.1726Z" fill="#0B0B0B" mask="url(#path-9-inside-5_150_2507)"/>
<mask id="path-11-inside-6_150_2507" fill="white">
<path d="M24.9781 3.12207H0V4.16282H24.9781V3.12207Z"/>
</mask>
<path d="M24.9781 3.12207H0V4.16282H24.9781V3.12207Z" fill="#0B0B0B"/>
<path d="M0 3.12207V1.12207H-2V3.12207H0ZM24.9781 3.12207H26.9781V1.12207H24.9781V3.12207ZM24.9781 4.16282V6.16282H26.9781V4.16282H24.9781ZM0 4.16282H-2V6.16282H0V4.16282ZM0 5.12207H24.9781V1.12207H0V5.12207ZM22.9781 3.12207V4.16282H26.9781V3.12207H22.9781ZM24.9781 2.16282H0V6.16282H24.9781V2.16282ZM2 4.16282V3.12207H-2V4.16282H2Z" fill="#0B0B0B" mask="url(#path-11-inside-6_150_2507)"/>
</svg>
