<svg width="26" height="26" viewBox="0 0 26 26" fill="none" xmlns="http://www.w3.org/2000/svg"><path d="M13 6.898a6.102 6.102 0 100 12.204 6.102 6.102 0 000-12.204zm0 10.612A4.51 4.51 0 1117.51 13 4.523 4.523 0 0113 17.51zM18.837 0H7.163A7.163 7.163 0 000 7.163v11.674A7.163 7.163 0 007.163 26h11.674A7.163 7.163 0 0026 18.837V7.163A7.163 7.163 0 0018.837 0zm5.571 18.837a5.571 5.571 0 01-5.571 5.571H7.163a5.571 5.571 0 01-5.571-5.571V7.163a5.571 5.571 0 015.571-5.571h11.674a5.571 5.571 0 015.571 5.571v11.674zM21.224 6.102a1.326 1.326 0 11-2.652 0 1.326 1.326 0 012.652 0z" fill="#0B0B0B"/></svg>