<svg width="21" height="21" viewBox="0 0 21 21" fill="none" xmlns="http://www.w3.org/2000/svg"><path d="M17.5 7.219v8.531c0 2.625-1.566 3.5-3.5 3.5H7c-1.934 0-3.5-.875-3.5-3.5V7.219c0-2.844 1.566-3.5 3.5-3.5 0 .542.219 1.032.577 1.391.36.359.85.577 1.392.577h3.062A1.972 1.972 0 0014 3.72c1.934 0 3.5.656 3.5 3.5z" stroke="#0B0B0B" stroke-width="1.5" stroke-linecap="round" stroke-linejoin="round"/><path d="M7 11.375h3.5m-3.5 3.5h7m0-11.156a1.972 1.972 0 01-1.969 1.969H8.97a1.957 1.957 0 01-1.391-.578A1.957 1.957 0 017 3.719c0-1.085.884-1.969 1.969-1.969h3.062c.543 0 1.033.219 1.391.578.36.358.578.848.578 1.39z" stroke="#0B0B0B" stroke-width="1.5" stroke-linecap="round" stroke-linejoin="round"/></svg>