<svg width="25" height="25" viewBox="0 0 25 25" fill="none" xmlns="http://www.w3.org/2000/svg"><path d="M18.14 25C8.138 25 0 16.862 0 6.86A6.911 6.911 0 016.03.012a1.788 1.788 0 011.852 1.073l2.568 5.992a1.801 1.801 0 01-.14 1.686l-2.134 3.245a.268.268 0 00-.013.243 9.99 9.99 0 004.625 4.611.242.242 0 00.242-.025l3.207-2.134a1.762 1.762 0 011.686-.153l5.992 2.568a1.789 1.789 0 011.073 1.852A6.912 6.912 0 0118.14 25zM6.247 1.532h-.026A5.391 5.391 0 001.533 6.86 16.62 16.62 0 0018.14 23.467a5.39 5.39 0 005.328-4.688.255.255 0 00-.154-.256l-5.991-2.568a.268.268 0 00-.243.026l-3.194 2.133a1.815 1.815 0 01-1.762.128 11.6 11.6 0 01-5.34-5.327 1.789 1.789 0 01.114-1.75L9.02 7.92a.243.243 0 00.026-.243L6.477 1.686a.256.256 0 00-.23-.154z" fill="#0B0B0B"/></svg>