<svg width="25" height="25" viewBox="0 0 25 25" fill="none" xmlns="http://www.w3.org/2000/svg">
<path d="M18.1405 25C8.13766 25 0 16.8623 0 6.85952C0.0018057 5.18049 0.614777 3.55954 1.72442 2.29944C2.83406 1.03934 4.36447 0.226278 6.02979 0.0121322C6.41299 -0.0327261 6.80042 0.0475329 7.13426 0.240931C7.4681 0.434329 7.73045 0.730495 7.88216 1.08523L10.4499 7.0767C10.5664 7.34779 10.6145 7.64334 10.59 7.93738C10.5655 8.23141 10.4692 8.51493 10.3094 8.763L8.17599 12.0078C8.1549 12.0444 8.14276 12.0855 8.14054 12.1277C8.13832 12.1699 8.14609 12.212 8.16321 12.2506C9.1445 14.2625 10.7731 15.8866 12.7878 16.8623C12.8269 16.8799 12.8699 16.8868 12.9126 16.8823C12.9552 16.8778 12.9959 16.8621 13.0305 16.8368L16.237 14.7034C16.4826 14.5383 16.7658 14.4378 17.0605 14.411C17.3552 14.3842 17.6519 14.432 17.9233 14.5501L23.9148 17.1178C24.2695 17.2695 24.5657 17.5319 24.7591 17.8657C24.9525 18.1996 25.0327 18.587 24.9879 18.9702C24.7737 20.6355 23.9607 22.1659 22.7006 23.2756C21.4405 24.3852 19.8195 24.9982 18.1405 25ZM6.24697 1.53236H6.22142C4.92753 1.70243 3.73926 2.33608 2.87707 3.31573C2.01489 4.29537 1.53733 5.55451 1.533 6.85952C1.53638 11.2631 3.28718 15.4853 6.40095 18.599C9.51473 21.7128 13.7369 23.4636 18.1405 23.467C19.4455 23.4627 20.7046 22.9851 21.6843 22.1229C22.6639 21.2607 23.2976 20.0725 23.4676 18.7786C23.472 18.7253 23.4596 18.672 23.4321 18.6262C23.4046 18.5803 23.3634 18.5443 23.3143 18.5231L17.3229 15.9553C17.2833 15.9401 17.2406 15.9344 17.1984 15.9389C17.1562 15.9433 17.1157 15.9577 17.0802 15.9809L13.8864 18.1143C13.6278 18.2841 13.3301 18.385 13.0215 18.4074C12.713 18.4298 12.4038 18.3728 12.1235 18.242C9.79972 17.1108 7.92033 15.2359 6.78352 12.9149C6.65076 12.6378 6.59159 12.3313 6.61173 12.0247C6.63187 11.7182 6.73063 11.422 6.89849 11.1647L9.01914 7.91985C9.04445 7.88525 9.06015 7.84456 9.06464 7.80193C9.06913 7.7593 9.06224 7.71623 9.04469 7.67712L6.47692 1.68566C6.45732 1.64074 6.42523 1.60241 6.38446 1.57523C6.34369 1.54805 6.29596 1.53317 6.24697 1.53236Z" fill="#0B0B0B"/>
</svg>
