<svg width="21" height="21" viewBox="0 0 21 21" fill="none" xmlns="http://www.w3.org/2000/svg"><path d="M9.179 1.951L4.813 3.588c-1.007.376-1.83 1.566-1.83 2.642v6.502c0 1.032.683 2.388 1.515 3.01L8.26 18.55c1.234.928 3.264.928 4.498 0l3.762-2.809c.831-.62 1.514-1.977 1.514-3.01v-6.5c0-1.077-.823-2.267-1.829-2.643L11.839 1.95c-.744-.27-1.934-.27-2.66 0z" stroke="#0B0B0B" stroke-width="1.5" stroke-linecap="round" stroke-linejoin="round"/><path d="M10.5 9.555h-.114a1.536 1.536 0 01-1.478-1.54c0-.849.69-1.54 1.54-1.54.848 0 1.54.691 1.54 1.54a1.544 1.544 0 01-1.488 1.54zm-1.741 2.45c-.84.56-.84 1.479 0 2.039.954.639 2.52.639 3.473 0 .84-.56.84-1.479 0-2.039-.944-.639-2.51-.639-3.473 0z" stroke="#0B0B0B" stroke-width="1.5" stroke-linecap="round" stroke-linejoin="round"/></svg>