<svg width="25" height="26" viewBox="0 0 25 26" fill="none" xmlns="http://www.w3.org/2000/svg"><path d="M11.842.004c-2.114.025-6.658.368-9.2 2.67C.75 4.523.09 7.257.013 10.638c-.064 3.368-.141 9.694 6.037 11.417v2.624s-.04 1.05.664 1.265c.866.27 1.359-.537 2.182-1.405l1.535-1.714c4.227.347 7.464-.452 7.837-.57.858-.271 5.69-.88 6.479-7.208.81-6.534-.395-10.65-2.569-12.513h-.013C21.51 1.938 18.872.04 12.982.02c0 0-.437-.03-1.14-.017zm.072 1.837c.6-.004.965.021.965.021 4.986.013 7.366 1.494 7.927 1.993 1.83 1.549 2.774 5.26 2.084 10.715-.657 5.29-4.575 5.624-5.3 5.853-.309.097-3.16.791-6.752.563 0 0-2.675 3.186-3.512 4.007-.132.144-.287.186-.386.165-.141-.034-.184-.207-.176-.445l.026-4.354c-5.24-1.43-4.931-6.826-4.875-9.644.064-2.819.6-5.124 2.195-6.686 2.148-1.917 6.007-2.175 7.803-2.188h.002zm.396 2.818a.33.33 0 00-.305.197.318.318 0 00-.026.124c0 .182.15.326.33.326a6.256 6.256 0 012.387.425c.76.295 1.452.737 2.038 1.298 1.196 1.146 1.779 2.687 1.801 4.7 0 .179.146.327.33.327v-.013c.087 0 .17-.034.232-.094a.323.323 0 00.098-.228 6.917 6.917 0 00-.458-2.781 6.988 6.988 0 00-1.531-2.378c-1.303-1.257-2.955-1.904-4.896-1.904zm-4.34.745a1.042 1.042 0 00-.673.13H7.28c-.47.273-.894.617-1.256 1.02-.3.343-.463.69-.506 1.024a1.36 1.36 0 00.052.588l.021.013c.338.982.78 1.926 1.32 2.815a16.57 16.57 0 002.547 3.436l.03.042.047.034.03.034.034.03a17.002 17.002 0 003.49 2.526c1.449.778 2.328 1.146 2.856 1.299v.008a1.5 1.5 0 00.437.067c.45-.032.875-.212 1.209-.512a4.94 4.94 0 001.02-1.243v-.009c.253-.47.168-.914-.197-1.214-.73-.63-1.52-1.19-2.358-1.672-.562-.3-1.132-.118-1.363.186l-.493.614c-.253.305-.712.262-.712.262l-.014.008c-3.425-.863-4.338-4.286-4.338-4.286s-.043-.466.274-.703l.617-.49c.296-.238.501-.8.184-1.355a14.626 14.626 0 00-1.689-2.328.94.94 0 00-.553-.326l.002.002zm4.91.965c-.438 0-.438.652.003.652a4.179 4.179 0 012.907 1.243c.345.376.61.816.779 1.294.17.478.24.985.207 1.49a.326.326 0 00.099.228c.061.06.144.094.231.095l.013.017a.332.332 0 00.233-.096.326.326 0 00.097-.23c.03-1.291-.377-2.374-1.174-3.242-.802-.868-1.92-1.354-3.349-1.451h-.047zm.54 1.752c-.45-.013-.468.651-.021.664 1.085.056 1.611.597 1.68 1.71a.321.321 0 00.098.224.33.33 0 00.228.094h.014a.337.337 0 00.232-.108.328.328 0 00.085-.24c-.078-1.45-.88-2.268-2.303-2.344h-.013z" fill="#0B0B0B"/></svg>