<svg width="124" height="23" viewBox="0 0 124 23" fill="none" xmlns="http://www.w3.org/2000/svg"><path d="M9.813 22.516H8.171L0 .109h4.844l4.968 13.625v8.782zm11.75-8.594L26.578.156h4.844l-4.078 11.188-4.078 11.187h-1.703v-8.61zM18.14 6.969l2.468 6.765v8.782h-1.64l-3.25-8.907-3.25 8.922h-1.703v-8.61l2.53-6.952h4.845zM41.094.11l7.922 22.406h-5.782l-1.5-4.766h-6.203l1.203-4.14h3.813v-.079l-2.313-8.25h-.078l-4.843 17.235H28.78v-3.25L35.297.109h5.797zm14.031 22.406h-5.094V1.453l5.094 8.5v12.563zm8.281-.016L50.094.125h4.843l13.329 22.39-4.86-.015zM63.203.11h5.094v21.062l-5.094-8.5V.109zm17.703 22.359h-5.094V5.109h5.094v17.36zM86.578.156v4.125H69.891V.156h16.687zm6.766 22.36H88.25V.063h5.094v22.453zM104.719.109v4.125h-10.5V.11h10.5zm-.828 8.485v4.125H94.25V8.594h9.641zm.875 9.765v4.125h-10.5V18.36h10.5zm6.609 4.157h-5.094V.063h5.094v22.453zm7.281-15.657c-.354-1.75-1.312-2.64-2.875-2.671l-3.593-.047V0h3.593c3.011 0 5.193.849 6.547 2.547.958 1.458 1.438 2.979 1.438 4.562v8.282c0 1.583-.48 3.104-1.438 4.562-1.354 1.698-3.536 2.547-6.547 2.547h-3.593v-4.14l3.593-.047c1.563-.032 2.521-.922 2.875-2.672V6.859z" fill="#000"/></svg>